PathFileType	4	(X/Y/Z)	C:/Users/opensim2020/Desktop/walking_exp_matlab/subject01_walking17_run.trc																																																																																																																																																																																					
DataRate	CameraRate	NumFrames	NumMarkers	Units	OrigDataRate	OrigDataStartFrame	OrigNumFrames																																																																																																																																																																																	
100	100	4	61	mm	100	314	87																																																																																																																																																																																	
Frame#	Time	LTHI			LKNE			RELB			STRN			RWRA			LSHO			RFRM			RUPA			RSHO			RASI			RBHD			RFIN			LFHD			RFHD			CLAV			LHEE			RWRB			LASI			LBHD			LWRA			LTIB			RTHI			LWRB			LTOE			RKNE			C7			LFRM			LFIN			LUPA			LELB			RTIB			RTOE			RBAK			RANK			T10			LPSI			LANK			RHEE			RPSI			*39			*40			*41			*42			*43			*44			*45			*46			*47			*48			*49			*50			*51			*52			*53			*54			*55			*56			*57			*58			*59			*60		
		X1	Y1	Z1	X2	Y2	Z2	X3	Y3	Z3	X4	Y4	Z4	X5	Y5	Z5	X6	Y6	Z6	X7	Y7	Z7	X8	Y8	Z8	X9	Y9	Z9	X10	Y10	Z10	X11	Y11	Z11	X12	Y12	Z12	X13	Y13	Z13	X14	Y14	Z14	X15	Y15	Z15	X16	Y16	Z16	X17	Y17	Z17	X18	Y18	Z18	X19	Y19	Z19	X20	Y20	Z20	X21	Y21	Z21	X22	Y22	Z22	X23	Y23	Z23	X24	Y24	Z24	X25	Y25	Z25	X26	Y26	Z26	X27	Y27	Z27	X28	Y28	Z28	X29	Y29	Z29	X30	Y30	Z30	X31	Y31	Z31	X32	Y32	Z32	X33	Y33	Z33	X34	Y34	Z34	X35	Y35	Z35	X36	Y36	Z36	X37	Y37	Z37	X38	Y38	Z38	X39	Y39	Z39	X40	Y40	Z40	X41	Y41	Z41	X42	Y42	Z42	X43	Y43	Z43	X44	Y44	Z44	X45	Y45	Z45	X46	Y46	Z46	X47	Y47	Z47	X48	Y48	Z48	X49	Y49	Z49	X50	Y50	Z50	X51	Y51	Z51	X52	Y52	Z52	X53	Y53	Z53	X54	Y54	Z54	X55	Y55	Z55	X56	Y56	Z56	X57	Y57	Z57	X58	Y58	Z58	X59	Y59	Z59	X60	Y60	Z60	X61	Y61	Z61
																																																																																																																																																																																								
44	0.43	-194.25847	577.09692	-549.06903	-256.06586	454.82837	-529.22418	-295.71579	1245.03113	-105.17909	53.69743	1165.89746	-384.85837	-208.60783	1004.3869	-101.00574	21.94606	1344.62683	-566.10822	-285.06775	1120.0199	-70.60416	-211.20744	1319.88318	-170.65627	-45.10241	1373.64771	-270.38962	-55.22935	925.96686	-307.00192	-91.64276	1581.5022	-360.10696	-189.44426	938.10712	-53.58774	-0.45315	1637.75647	-489.7822	9.49376	1653.81201	-378.85062	37.05822	1326.44202	-399.62302	-601.82605	216.89972	-432.42038	-248.62265	999.44684	-59.56538	-59.81094	903.6225	-514.55347	-100.60617	1568.17285	-478.32675	192.70198	1153.38342	-480.74338	-408.74472	342.27826	-531.31409	93.91216	708.70972	-257.263	229.23032	1107.42932	-484.69971	-546.39569	38.16325	-445.92883	208.69344	599.73553	-286.27103	-99.76541	1402.01379	-441.94373	162.67525	1063.57874	-575.98425	258.99179	1172.93909	-446.60077	51.91459	1173.38623	-649.63098	79.42593	1025.0094	-659.08685	164.57974	424.95081	-260.27722	276.69128	152.24265	-295.47565	-189.31432	1238.1333	-367.65335	143.07782	209.84428	-289.48911	-186.91212	1128.99927	-432.87067	-236.89505	933.73621	-457.17566	-566.01422	186.28708	-482.11194	90.34156	168.82359	-336.07593	-231.27045	936.54327	-315.50555	1973.1261	1023.37671	-3101.9563	2012.54761	1022.13025	-3140.79126	NaN	NaN	NaN	-10.9324	1681.08667	-402.9469	NaN	NaN	NaN	NaN	NaN	NaN	NaN	NaN	NaN	NaN	NaN	NaN	NaN	NaN	NaN	NaN	NaN	NaN	NaN	NaN	NaN	NaN	NaN	NaN	NaN	NaN	NaN	NaN	NaN	NaN	NaN	NaN	NaN	NaN	NaN	NaN	NaN	NaN	NaN	NaN	NaN	NaN	NaN	NaN	NaN	NaN	NaN	NaN	NaN	NaN	NaN	NaN	NaN	NaN
45	0.44	-150.05846	583.0376	-550.46881	-213.98973	462.11041	-530.12292	-253.39355	1249.24292	-107.81491	99.9884	1171.32227	-382.1665	-163.65218	1008.44531	-101.62981	68.76348	1349.62415	-562.03113	-241.98647	1123.80859	-72.15984	-167.30515	1324.73779	-171.41762	-0.91092	1376.84326	-268.58215	-5.80985	929.1969	-309.18796	-46.13579	1586.73389	-357.77704	-144.20055	941.89026	-53.97963	45.38804	1641.29492	-487.95004	55.69602	1657.55005	-377.0322	82.0651	1331.61438	-396.7446	-565.48999	235.56209	-440.77325	-204.08321	1003.33527	-60.71911	-9.75812	907.45184	-514.70728	-55.59189	1573.38086	-475.92499	229.26796	1163.82581	-477.82449	-367.37247	350.84845	-533.76251	137.40651	704.86395	-259.13647	267.62622	1119.203	-480.32367	-525.54187	50.35704	-446.67865	254.00491	595.33392	-286.77496	-54.56405	1405.3252	-440.22202	205.28687	1072.92261	-573.72821	293.73898	1186.33252	-440.36465	99.05589	1179.55908	-647.01135	125.21963	1031.64282	-658.99164	226.70198	417.38141	-262.00522	363.01633	151.34019	-308.15668	-143.35892	1241.547	-368.76611	225.62231	201.89511	-294.72647	-138.81761	1131.47449	-435.36627	-186.52911	938.1275	-460.81656	-531.68958	200.95259	-487.45444	175.37997	159.96547	-341.41083	-182.09549	942.19434	-318.88486	1972.98438	1024.00012	-3102.05396	2012.55347	1022.13031	-3140.57861	NaN	NaN	NaN	36.10418	1686.15723	-401.20642	NaN	NaN	NaN	NaN	NaN	NaN	NaN	NaN	NaN	NaN	NaN	NaN	NaN	NaN	NaN	NaN	NaN	NaN	NaN	NaN	NaN	NaN	NaN	NaN	NaN	NaN	NaN	NaN	NaN	NaN	NaN	NaN	NaN	NaN	NaN	NaN	NaN	NaN	NaN	NaN	NaN	NaN	NaN	NaN	NaN	NaN	NaN	NaN	NaN	NaN	NaN	NaN	NaN	NaN
46	0.45	-100.88504	586.77112	-551.32605	-165.72356	465.38101	-530.18793	-209.64337	1250.18555	-109.70574	146.25342	1176.05432	-379.98822	-116.88985	1009.85028	-102.48632	115.20445	1353.80933	-558.4837	-196.97148	1124.28577	-73.48821	-122.83151	1327.34326	-171.32439	43.90883	1378.87573	-266.85565	43.33254	931.17596	-310.79276	-0.66921	1590.53491	-355.27423	-97.28109	943.10559	-54.87054	90.94977	1644.4823	-485.8475	101.60044	1660.73511	-374.79141	127.31486	1335.9624	-394.19528	-526.22125	254.20311	-446.50867	-157.71262	1003.86127	-61.92778	39.62147	910.56281	-514.005	-10.58069	1577.36145	-473.49985	265.6691	1170.36646	-475.47067	-322.11502	357.22809	-536.23029	182.10687	698.58643	-260.75009	305.26239	1126.72119	-476.9194	-495.8515	63.25243	-446.07584	296.65286	587.14661	-286.97617	-9.30702	1407.9657	-438.36368	245.25902	1079.38708	-571.86346	327.72418	1194.10901	-435.89053	144.43605	1185.6416	-646.08472	169.15189	1036.80444	-659.70355	285.40912	408.25064	-263.70187	441.7598	149.49754	-319.80264	-97.38123	1244.27905	-369.67365	302.37805	194.6306	-300.32791	-91.46539	1133.81885	-437.64218	-136.2429	942.95728	-464.28546	-493.84113	217.27512	-491.13058	253.55669	152.79712	-347.15829	-132.77229	947.41321	-321.77835	1973.11938	1023.64679	-3101.9458	2012.48169	1022.1731	-3140.79858	NaN	NaN	NaN	82.74362	1690.11731	-399.24652	NaN	NaN	NaN	NaN	NaN	NaN	NaN	NaN	NaN	NaN	NaN	NaN	NaN	NaN	NaN	NaN	NaN	NaN	NaN	NaN	NaN	NaN	NaN	NaN	NaN	NaN	NaN	NaN	NaN	NaN	NaN	NaN	NaN	NaN	NaN	NaN	NaN	NaN	NaN	NaN	NaN	NaN	NaN	NaN	NaN	NaN	NaN	NaN	NaN	NaN	NaN	NaN	NaN	NaN
47	0.46	-47.81533	587.04633	-551.33582	-112.81985	465.10321	-529.8244	-164.33035	1247.83972	-110.80775	192.63307	1179.77917	-378.76208	-68.15659	1008.52478	-103.57195	161.08121	1357.18481	-555.75702	-150.19713	1121.76782	-74.76787	-77.7962	1327.48962	-170.41936	89.16933	1380.00574	-265.34845	91.68454	932.11707	-312.29453	44.72987	1593.44153	-352.73544	-48.21335	941.82385	-55.8797	136.11339	1647.47839	-483.4541	147.1812	1663.43738	-372.40405	172.92702	1339.25061	-392.08496	-486.08801	272.40897	-450.82443	-109.65721	1001.96777	-63.30565	88.25142	912.34155	-513.72534	34.54121	1580.427	-470.90872	302.60397	1172.87573	-473.65765	-273.64166	363.12213	-539.13892	227.39668	690.27832	-261.58093	342.53265	1129.35681	-474.47556	-461.89175	81.20449	-447.21951	337.90781	575.94879	-287.09543	35.94262	1410.25549	-436.50275	284.84503	1083.02905	-571.7074	363.67166	1196.13782	-432.13345	188.47742	1190.78503	-646.41089	210.92847	1040.54285	-661.7951	340.67953	397.50677	-266.4274	511.89023	146.03238	-329.85559	-51.53785	1246.21045	-370.20248	371.06549	187.47322	-306.26877	-45.208	1136.56433	-439.63474	-86.22454	948.1579	-467.28925	-453.4238	233.65726	-494.01889	323.53391	145.49104	-353.51282	-83.41531	951.58746	-324.10739	1973.16187	1023.76001	-3102.05054	2012.45605	1022.04083	-3140.77271	NaN	NaN	NaN	129.01228	1693.34216	-397.22919	NaN	NaN	NaN	NaN	NaN	NaN	NaN	NaN	NaN	NaN	NaN	NaN	NaN	NaN	NaN	NaN	NaN	NaN	NaN	NaN	NaN	NaN	NaN	NaN	NaN	NaN	NaN	NaN	NaN	NaN	NaN	NaN	NaN	NaN	NaN	NaN	NaN	NaN	NaN	NaN	NaN	NaN	NaN	NaN	NaN	NaN	NaN	NaN	NaN	NaN	NaN	NaN	NaN	NaN
